<svg width="160" height="70" viewBox="0 0 160 70" fill="none" xmlns="http://www.w3.org/2000/svg">
<path d="M6.50793 24.4602L6.2335 18.3352L20.6216 3.18184H26.3454L14.388 16.0682L11.5653 19.2102L6.50793 24.4602ZM1.96021 31.0227V3.18184H7.0568V31.0227H1.96021ZM21.092 31.0227L10.5852 18.3352L13.9568 14.5568L27.0511 31.0227H21.092Z" fill="#F8F4E1"/>
<path d="M29.7063 31.0227V9.78411H34.3716V15.6307L33.8228 13.9205C34.4501 12.4887 35.4302 11.4015 36.7631 10.6591C38.1222 9.91669 39.808 9.54547 41.8205 9.54547V14.2784C41.6114 14.2254 41.4154 14.1989 41.2324 14.1989C41.0495 14.1724 40.8665 14.1591 40.6836 14.1591C38.8279 14.1591 37.3512 14.7159 36.2535 15.8296C35.1557 16.9167 34.6069 18.5474 34.6069 20.7216V31.0227H29.7063Z" fill="#F8F4E1"/>
<path d="M63.779 31.3012C62.0279 31.3012 60.3421 31.0758 58.7216 30.625C57.1273 30.1477 55.8597 29.5777 54.9188 28.9148L56.8006 25.1364C57.7415 25.7462 58.8654 26.25 60.1722 26.6478C61.479 27.0455 62.7859 27.2443 64.0927 27.2443C65.6347 27.2443 66.7455 27.0322 67.4251 26.608C68.1307 26.1837 68.4836 25.6137 68.4836 24.8977C68.4836 24.3144 68.2484 23.8769 67.7779 23.5852C67.3074 23.2671 66.6932 23.0284 65.9353 22.8693C65.1773 22.7102 64.3279 22.5644 63.387 22.4318C62.4722 22.2993 61.5444 22.1269 60.6035 21.9148C59.6887 21.6762 58.8523 21.3447 58.0944 20.9205C57.3364 20.4697 56.7222 19.8731 56.2518 19.1307C55.7813 18.3883 55.5461 17.4072 55.5461 16.1875C55.5461 14.8352 55.9251 13.6686 56.683 12.6875C57.441 11.6799 58.4995 10.911 59.8586 10.3807C61.2438 9.82388 62.8773 9.54547 64.7591 9.54547C66.1705 9.54547 67.5949 9.70457 69.0324 10.0227C70.4699 10.3409 71.6591 10.7917 72.6001 11.375L70.7182 15.1534C69.7251 14.5436 68.7188 14.1326 67.6995 13.9205C66.7063 13.6818 65.7131 13.5625 64.7199 13.5625C63.2302 13.5625 62.1194 13.7879 61.3876 14.2387C60.6819 14.6894 60.329 15.2595 60.329 15.9489C60.329 16.5852 60.5643 17.0625 61.0347 17.3807C61.5052 17.6989 62.1194 17.9508 62.8773 18.1364C63.6353 18.322 64.4716 18.4811 65.3864 18.6137C66.3273 18.7197 67.2552 18.8921 68.1699 19.1307C69.0847 19.3693 69.9211 19.7008 70.679 20.125C71.4631 20.5227 72.0904 21.0928 72.5609 21.8352C73.0313 22.5777 73.2665 23.5455 73.2665 24.7387C73.2665 26.0644 72.8745 27.2178 72.0904 28.1989C71.3324 29.1799 70.2478 29.9489 68.8364 30.5057C67.4251 31.036 65.7393 31.3012 63.779 31.3012Z" fill="#F8F4E1"/>
<path d="M89.3658 9.54547C91.0385 9.54547 92.5283 9.87691 93.8351 10.5398C95.1681 11.2027 96.2135 12.2235 96.9715 13.6023C97.7295 14.9546 98.1084 16.7046 98.1084 18.8523V31.0227H93.2079V19.4887C93.2079 17.6061 92.7635 16.2008 91.8749 15.2727C91.0124 14.3447 89.7971 13.8807 88.2289 13.8807C87.0789 13.8807 86.0596 14.1193 85.1709 14.5966C84.2823 15.0739 83.5897 15.7898 83.0931 16.7443C82.6226 17.6724 82.3874 18.8523 82.3874 20.2841V31.0227H77.4868V1.51138H82.3874V15.5114L81.3289 13.7614C82.0607 12.4091 83.1192 11.375 84.5045 10.6591C85.9158 9.91669 87.5363 9.54547 89.3658 9.54547Z" fill="#F8F4E1"/>
<path d="M123.538 31.3012C121.238 31.3012 119.461 30.7046 118.206 29.5114C116.951 28.2917 116.324 26.5019 116.324 24.1421V5.09093H121.225V24.0227C121.225 25.0303 121.473 25.8125 121.97 26.3693C122.492 26.9262 123.211 27.2046 124.126 27.2046C125.224 27.2046 126.138 26.9129 126.87 26.3296L128.242 29.8693C127.667 30.3466 126.962 30.7046 126.125 30.9432C125.289 31.1818 124.426 31.3012 123.538 31.3012ZM112.874 13.9205V9.9432H126.831V13.9205H112.874Z" fill="#F8F4E1"/>
<path d="M14.6625 70C12.5716 70 10.6244 69.6553 8.82102 68.9659C7.04375 68.25 5.48864 67.2557 4.15568 65.983C2.84886 64.6837 1.82955 63.1591 1.09773 61.4091C0.365909 59.6591 0 57.75 0 55.6818C0 53.6136 0.365909 51.7046 1.09773 49.9546C1.82955 48.2046 2.86193 46.6932 4.19489 45.4205C5.52784 44.1212 7.08295 43.1269 8.86023 42.4375C10.6375 41.7216 12.5847 41.3636 14.7017 41.3636C16.9494 41.3636 19.0011 41.7614 20.8568 42.5568C22.7125 43.3258 24.2807 44.4792 25.5614 46.0171L22.2682 49.1591C21.275 48.072 20.1642 47.2633 18.9358 46.733C17.7074 46.1761 16.3744 45.8977 14.9369 45.8977C13.4994 45.8977 12.1795 46.1364 10.9773 46.6136C9.80114 47.0909 8.76875 47.7671 7.88011 48.6421C7.01761 49.5171 6.33807 50.5512 5.84148 51.7443C5.37102 52.9375 5.1358 54.25 5.1358 55.6818C5.1358 57.1136 5.37102 58.4262 5.84148 59.6193C6.33807 60.8125 7.01761 61.8466 7.88011 62.7216C8.76875 63.5966 9.80114 64.2727 10.9773 64.75C12.1795 65.2273 13.4994 65.4659 14.9369 65.4659C16.3744 65.4659 17.7074 65.2008 18.9358 64.6705C20.1642 64.1136 21.275 63.2784 22.2682 62.1648L25.5614 65.3466C24.2807 66.858 22.7125 68.0114 20.8568 68.8068C19.0011 69.6023 16.9364 70 14.6625 70Z" fill="#F8F4E1"/>
<path d="M29.9743 69.6023V48.3636H34.6397V54.2102L34.0908 52.5C34.7181 51.0682 35.6982 49.9811 37.0311 49.2386C38.3902 48.4962 40.076 48.125 42.0885 48.125V52.858C41.8794 52.8049 41.6834 52.7784 41.5005 52.7784C41.3175 52.7519 41.1346 52.7387 40.9516 52.7387C39.0959 52.7387 37.6192 53.2955 36.5215 54.4091C35.4238 55.4962 34.8749 57.1269 34.8749 59.3011V69.6023H29.9743Z" fill="#F8F4E1"/>
<path d="M55.8946 69.8807C53.5685 69.8807 51.5299 69.4167 49.7787 68.4886C48.0537 67.5341 46.7077 66.2349 45.7407 64.5909C44.7998 62.947 44.3293 61.0777 44.3293 58.983C44.3293 56.8618 44.7867 54.9924 45.7015 53.375C46.6424 51.7311 47.9231 50.4451 49.5435 49.5171C51.1901 48.589 53.0589 48.125 55.1498 48.125C57.1884 48.125 59.0049 48.5758 60.5992 49.4773C62.1935 50.3788 63.4481 51.6515 64.3628 53.2955C65.2776 54.9394 65.735 56.875 65.735 59.1023C65.735 59.3144 65.7219 59.553 65.6958 59.8182C65.6958 60.0833 65.6827 60.3352 65.6566 60.5739H48.2106V57.2727H63.0691L61.1481 58.3068C61.1742 57.0871 60.9259 56.0133 60.4032 55.0852C59.8804 54.1572 59.1617 53.428 58.2469 52.8977C57.3583 52.3674 56.3259 52.1023 55.1498 52.1023C53.9475 52.1023 52.889 52.3674 51.9742 52.8977C51.0856 53.428 50.3799 54.1705 49.8572 55.125C49.3606 56.053 49.1123 57.1534 49.1123 58.4262V59.2216C49.1123 60.4943 49.3998 61.6212 49.9748 62.6023C50.5498 63.5833 51.36 64.339 52.4054 64.8693C53.4509 65.3996 54.6532 65.6648 56.0123 65.6648C57.1884 65.6648 58.2469 65.4792 59.1878 65.108C60.1287 64.7368 60.9651 64.1534 61.6969 63.358L64.3236 66.4205C63.3827 67.5341 62.1935 68.3958 60.756 69.0057C59.3447 69.589 57.7242 69.8807 55.8946 69.8807Z" fill="#F8F4E1"/>
<path d="M82.7663 69.6023V65.3068L82.4919 64.3921V56.875C82.4919 55.4167 82.0606 54.2898 81.1981 53.4943C80.3356 52.6724 79.0288 52.2614 77.2777 52.2614C76.1015 52.2614 74.9385 52.447 73.7885 52.8182C72.6646 53.1894 71.7106 53.7064 70.9265 54.3693L69.0055 50.75C70.1294 49.875 71.4623 49.2254 73.0044 48.8011C74.5726 48.3504 76.193 48.125 77.8657 48.125C80.8976 48.125 83.2368 48.8674 84.8834 50.3523C86.5561 51.8106 87.3924 54.0777 87.3924 57.1534V69.6023H82.7663ZM76.1799 69.8807C74.6118 69.8807 73.2396 69.6155 72.0635 69.0852C70.8873 68.5284 69.9725 67.7727 69.3191 66.8182C68.6919 65.8371 68.3782 64.7368 68.3782 63.5171C68.3782 62.3239 68.6527 61.25 69.2015 60.2955C69.7765 59.3409 70.7044 58.5852 71.9851 58.0284C73.2657 57.4716 74.9646 57.1932 77.0816 57.1932H83.1583V60.4943H77.4345C75.7618 60.4943 74.6379 60.7727 74.0629 61.3296C73.4879 61.8599 73.2004 62.5227 73.2004 63.3182C73.2004 64.2197 73.5532 64.9356 74.2589 65.4659C74.9646 65.9962 75.9447 66.2614 77.1993 66.2614C78.4015 66.2614 79.4731 65.983 80.414 65.4261C81.3811 64.8693 82.0737 64.0474 82.4919 62.9602L83.3152 65.9432C82.8447 67.1894 81.9953 68.1572 80.7669 68.8466C79.5646 69.536 78.0356 69.8807 76.1799 69.8807Z" fill="#F8F4E1"/>
<path d="M101.562 69.8807C99.2618 69.8807 97.4846 69.2841 96.23 68.0909C94.9755 66.8712 94.3482 65.0814 94.3482 62.7216V43.6705H99.2488V62.6023C99.2488 63.6099 99.497 64.3921 99.9936 64.9489C100.516 65.5057 101.235 65.7841 102.15 65.7841C103.248 65.7841 104.162 65.4924 104.894 64.9091L106.266 68.4489C105.691 68.9262 104.986 69.2841 104.149 69.5227C103.313 69.7614 102.45 69.8807 101.562 69.8807ZM90.8982 52.5V48.5227H104.855V52.5H90.8982Z" fill="#F8F4E1"/>
<path d="M119.449 69.8807C117.123 69.8807 115.084 69.4167 113.333 68.4886C111.608 67.5341 110.262 66.2349 109.295 64.5909C108.354 62.947 107.884 61.0777 107.884 58.983C107.884 56.8618 108.341 54.9924 109.256 53.375C110.197 51.7311 111.477 50.4451 113.098 49.5171C114.744 48.589 116.613 48.125 118.704 48.125C120.743 48.125 122.559 48.5758 124.153 49.4773C125.748 50.3788 127.002 51.6515 127.917 53.2955C128.832 54.9394 129.289 56.875 129.289 59.1023C129.289 59.3144 129.276 59.553 129.25 59.8182C129.25 60.0833 129.237 60.3352 129.211 60.5739H111.765V57.2727H126.623L124.702 58.3068C124.728 57.0871 124.48 56.0133 123.957 55.0852C123.435 54.1572 122.716 53.428 121.801 52.8977C120.913 52.3674 119.88 52.1023 118.704 52.1023C117.502 52.1023 116.443 52.3674 115.528 52.8977C114.64 53.428 113.934 54.1705 113.411 55.125C112.915 56.053 112.667 57.1534 112.667 58.4262V59.2216C112.667 60.4943 112.954 61.6212 113.529 62.6023C114.104 63.5833 114.914 64.339 115.96 64.8693C117.005 65.3996 118.207 65.6648 119.567 65.6648C120.743 65.6648 121.801 65.4792 122.742 65.108C123.683 64.7368 124.519 64.1534 125.251 63.358L127.878 66.4205C126.937 67.5341 125.748 68.3958 124.31 69.0057C122.899 69.589 121.278 69.8807 119.449 69.8807Z" fill="#F8F4E1"/>
<path d="M140.465 69.8807C138.714 69.8807 137.028 69.6553 135.408 69.2046C133.814 68.7273 132.546 68.1572 131.605 67.4943L133.487 63.7159C134.428 64.3258 135.552 64.8296 136.858 65.2273C138.165 65.625 139.472 65.8239 140.779 65.8239C142.321 65.8239 143.432 65.6118 144.111 65.1875C144.817 64.7633 145.17 64.1932 145.17 63.4773C145.17 62.894 144.935 62.4565 144.464 62.1648C143.994 61.8466 143.379 61.608 142.622 61.4489C141.864 61.2898 141.014 61.144 140.073 61.0114C139.158 60.8788 138.231 60.7065 137.29 60.4943C136.375 60.2557 135.539 59.9243 134.781 59.5C134.023 59.0493 133.408 58.4527 132.938 57.7102C132.468 56.9678 132.232 55.9868 132.232 54.7671C132.232 53.4148 132.611 52.2481 133.369 51.2671C134.127 50.2595 135.186 49.4905 136.545 48.9602C137.93 48.4034 139.564 48.125 141.445 48.125C142.857 48.125 144.281 48.2841 145.719 48.6023C147.156 48.9205 148.345 49.3712 149.286 49.9546L147.404 53.733C146.411 53.1231 145.405 52.7121 144.386 52.5C143.393 52.2614 142.399 52.1421 141.406 52.1421C139.916 52.1421 138.806 52.3674 138.074 52.8182C137.368 53.269 137.015 53.839 137.015 54.5284C137.015 55.1648 137.251 55.6421 137.721 55.9602C138.191 56.2784 138.806 56.5303 139.564 56.7159C140.322 56.9015 141.158 57.0606 142.073 57.1932C143.014 57.2993 143.941 57.4716 144.856 57.7102C145.771 57.9489 146.607 58.2803 147.365 58.7046C148.149 59.1023 148.777 59.6724 149.247 60.4148C149.718 61.1572 149.953 62.125 149.953 63.3182C149.953 64.6439 149.561 65.7974 148.777 66.7784C148.019 67.7595 146.934 68.5284 145.523 69.0852C144.111 69.6155 142.426 69.8807 140.465 69.8807Z" fill="#F8F4E1"/>
<path d="M46.7711 31.0227V9.46593H51.6716V31.0227H46.7711Z" fill="#F8F4E1"/>
<path d="M46.9671 5.09091C47.5683 5.67424 48.3262 5.96591 49.241 5.96591C50.1819 5.96591 50.9398 5.67424 51.5148 5.09091C52.0898 4.48106 52.3773 3.73864 52.3773 2.86364C52.3773 2.04167 52.0768 1.36553 51.4756 0.835226C50.9006 0.278409 50.1558 0 49.241 0C48.3262 0 47.5683 0.291666 46.9671 0.874998C46.3921 1.43182 46.1046 2.13447 46.1046 2.98295C46.1046 3.80492 46.3921 4.50758 46.9671 5.09091Z" fill="#DCCE2A"/>
<path d="M104.01 31.0227V9.46593H108.91V31.0227H104.01Z" fill="#F8F4E1"/>
<path d="M104.206 5.09091C104.807 5.67424 105.565 5.96591 106.48 5.96591C107.421 5.96591 108.178 5.67424 108.753 5.09091C109.328 4.48106 109.616 3.73864 109.616 2.86364C109.616 2.04167 109.315 1.36553 108.714 0.835226C108.139 0.278409 107.394 0 106.48 0C105.565 0 104.807 0.291666 104.206 0.874998C103.631 1.43182 103.343 2.13447 103.343 2.98295C103.343 3.80492 103.631 4.50758 104.206 5.09091Z" fill="#DCCE2A"/>
<path d="M154.388 69.125C154.989 69.7084 155.747 70 156.661 70C157.602 70 158.36 69.7084 158.935 69.125C159.51 68.5152 159.798 67.7728 159.798 66.8978C159.798 66.0758 159.497 65.3996 158.896 64.8693C158.321 64.3125 157.576 64.0341 156.661 64.0341C155.747 64.0341 154.989 64.3258 154.388 64.9091C153.813 65.4659 153.525 66.1686 153.525 67.0171C153.525 67.839 153.813 68.5417 154.388 69.125Z" fill="#DCCE2A"/>
</svg>
